<?xml version="1.0" encoding="UTF-8"?>
<svg id="Layer_2" xmlns="http://www.w3.org/2000/svg" xmlns:xlink="http://www.w3.org/1999/xlink" viewBox="0 0 159.94 159.94">
  <defs>
    <style>
      .cls-1 {
        stroke: #000;
        stroke-miterlimit: 10;
        stroke-width: .94px;
      }

      .cls-2, .cls-3, .cls-4, .cls-5 {
        fill: #fff;
      }

      .cls-3 {
        filter: url(#drop-shadow-1);
      }

      .cls-4 {
        filter: url(#drop-shadow-3);
      }

      .cls-5 {
        filter: url(#drop-shadow-2);
      }
    </style>
    <filter id="drop-shadow-1" x="11.06" y="27.22" width="79.34" height="61.48" filterUnits="userSpaceOnUse">
      <feOffset dx="0" dy="-.69"/>
      <feGaussianBlur result="blur" stdDeviation="0"/>
      <feFlood flood-color="#000" flood-opacity="1"/>
      <feComposite in2="blur" operator="in"/>
      <feComposite in="SourceGraphic"/>
    </filter>
    <filter id="drop-shadow-2" x="90.4" y="50.96" width="58.64" height="54.22" filterUnits="userSpaceOnUse">
      <feOffset dx="0" dy="-.69"/>
      <feGaussianBlur result="blur-2" stdDeviation="0"/>
      <feFlood flood-color="#000" flood-opacity="1"/>
      <feComposite in2="blur-2" operator="in"/>
      <feComposite in="SourceGraphic"/>
    </filter>
    <filter id="drop-shadow-3" x="71.77" y="79.97" width="18.63" height="36.25" filterUnits="userSpaceOnUse">
      <feOffset dx="0" dy="-.69"/>
      <feGaussianBlur result="blur-3" stdDeviation="0"/>
      <feFlood flood-color="#000" flood-opacity="1"/>
      <feComposite in2="blur-3" operator="in"/>
      <feComposite in="SourceGraphic"/>
    </filter>
  </defs>
  <g id="Layer_1-2" data-name="Layer_1">
    <g>
      <rect class="cls-1" x=".47" y=".47" width="159" height="159" rx="5.35" ry="5.35"/>
      <g>
        <polygon class="cls-2" points="10.9 116.22 29.69 116.22 29.69 86.24 11.06 67.79 10.9 116.22"/>
        <polygon class="cls-3" points="90.4 67.66 90.4 27.22 86.14 27.22 51.56 62.41 50.25 62.4 15.67 27.22 11.06 27.22 11.06 48.56 51.06 88.7 81.34 58.62 90.4 67.66"/>
        <polygon class="cls-5" points="111.35 88.56 90.4 68.26 90.4 88.62 109.02 105.18 113.35 105.18 149.04 68.75 149.04 50.96 111.35 88.56"/>
        <polygon class="cls-4" points="80.74 79.97 71.77 87.93 71.77 116.22 90.4 116.22 90.39 88.55 80.74 79.97"/>
      </g>
      <g>
        <path class="cls-2" d="M34.97,129.48h7.15v1.45h-5.61v3.57h5.22v1.45h-5.22v4.92h-1.54v-11.37Z"/>
        <path class="cls-2" d="M49.01,129.48h1.54v11.37h-1.54v-11.37Z"/>
        <path class="cls-2" d="M60.67,130.92h-3.66v-1.45h8.87v1.45h-3.66v9.93h-1.54v-9.93Z"/>
        <path class="cls-2" d="M72.33,129.48h2.02l6.26,9.35h.03v-9.35h1.54v11.37h-1.96l-6.33-9.35h-.03v9.35h-1.54v-11.37Z"/>
        <path class="cls-2" d="M89.94,129.48h7.34v1.45h-5.8v3.39h5.4v1.45h-5.4v3.65h6.09v1.45h-7.63v-11.37Z"/>
        <path class="cls-2" d="M104.91,138.47c.28.42.63.73,1.07.92.43.2.88.3,1.34.3.26,0,.52-.04.79-.12.27-.08.51-.2.73-.36.22-.16.4-.36.54-.59.14-.24.21-.51.21-.82,0-.44-.14-.77-.42-1-.28-.23-.62-.42-1.04-.58-.41-.16-.86-.31-1.35-.45-.49-.14-.94-.35-1.35-.6-.41-.26-.76-.6-1.04-1.04-.28-.43-.42-1.02-.42-1.76,0-.33.07-.69.22-1.06.14-.37.37-.72.68-1.03.31-.31.71-.57,1.2-.78.49-.21,1.07-.31,1.76-.31.62,0,1.22.09,1.78.26.57.17,1.07.52,1.49,1.04l-1.25,1.14c-.19-.3-.47-.54-.82-.72-.35-.18-.75-.27-1.2-.27s-.78.06-1.07.17c-.28.11-.51.26-.68.43-.17.18-.29.37-.36.57-.07.2-.1.39-.1.56,0,.48.14.85.42,1.11.28.26.62.47,1.04.63.41.16.86.31,1.35.43.49.13.94.31,1.35.54.41.23.76.54,1.04.93.28.39.42.93.42,1.61,0,.55-.1,1.04-.31,1.48-.21.44-.49.81-.84,1.11-.35.3-.77.53-1.25.69-.48.16-1,.24-1.54.24-.73,0-1.42-.13-2.07-.39-.65-.26-1.17-.65-1.56-1.19l1.27-1.09Z"/>
        <path class="cls-2" d="M118.66,138.47c.28.42.63.73,1.07.92.43.2.88.3,1.34.3.26,0,.52-.04.79-.12.27-.08.51-.2.73-.36.22-.16.4-.36.54-.59.14-.24.21-.51.21-.82,0-.44-.14-.77-.42-1-.28-.23-.62-.42-1.04-.58-.41-.16-.86-.31-1.35-.45-.49-.14-.94-.35-1.35-.6-.41-.26-.76-.6-1.04-1.04-.28-.43-.42-1.02-.42-1.76,0-.33.07-.69.22-1.06.14-.37.37-.72.68-1.03.31-.31.71-.57,1.2-.78.49-.21,1.07-.31,1.76-.31.62,0,1.22.09,1.78.26.57.17,1.07.52,1.49,1.04l-1.25,1.14c-.19-.3-.47-.54-.82-.72-.35-.18-.75-.27-1.2-.27s-.78.06-1.07.17c-.28.11-.51.26-.68.43-.17.18-.29.37-.36.57-.07.2-.1.39-.1.56,0,.48.14.85.42,1.11.28.26.62.47,1.04.63.41.16.86.31,1.35.43.49.13.94.31,1.35.54.41.23.76.54,1.04.93.28.39.42.93.42,1.61,0,.55-.1,1.04-.31,1.48-.21.44-.49.81-.84,1.11-.35.3-.77.53-1.25.69-.48.16-1,.24-1.54.24-.73,0-1.42-.13-2.07-.39-.65-.26-1.17-.65-1.56-1.19l1.27-1.09Z"/>
      </g>
    </g>
  </g>
</svg>