<?xml version="1.0" encoding="UTF-8"?>
<svg id="Layer_2" xmlns="http://www.w3.org/2000/svg" viewBox="0 0 491 131">
  <defs>
    <linearGradient id="brand-gradient" x1="0%" y1="0%" x2="0%" y2="100%">
      <stop offset="0%" style="stop-color:#4ade80;stop-opacity:1" />
      <stop offset="100%" style="stop-color:#05A660;stop-opacity:1" />
    </linearGradient>
    <style>
      .icon-fill { fill: url(#brand-gradient); }
      .text-fill { fill: #221F20; }
    </style>
  </defs>
  <g id="Layer_1-2" data-name="Layer_1">
    <!-- Icon/Mark in Gradient -->
    <g class="icon-fill">
        <polygon points="0 130 27.23 130 27.24 86.56 .23 59.8 0 130"/>
        <polygon points=".23 1 .23 31.94 58.21 90.12 102.1 46.51 115.23 59.61 115.23 1 109.06 1 58.94 52 57.03 51.99 6.91 1 .23 1"/>
        <polyline points="115.23 90 115.23 60.49 145.61 89.91 200.23 35.41 200.23 61.19 148.51 114 142.23 114"/>
        <polyline points="88.23 89 88.23 130 115.23 130.01 115.21 89.89 101.24 77.46"/>
    </g>
    <!-- Text and Divider in Black -->
    <g class="text-fill">
      <g>
          <path d="M239.84,23.06h17.38v2.46h-14.68v10.33h13.65v2.46h-13.65v13.78h-2.71v-29.03Z"/>
          <path d="M278.79,23.06h2.71v29.03h-2.71v-29.03Z"/>
          <path d="M312.04,25.52h-9.92v-2.46h22.55v2.46h-9.92v26.57h-2.71v-26.57Z"/>
          <path d="M345.29,23.06h3.49l17.67,25.42h.08v-25.42h2.71v29.03h-3.49l-17.67-25.42h-.08v25.42h-2.71v-29.03Z"/>
          <path d="M393.34,23.06h17.75v2.46h-15.05v10.33h14.1v2.46h-14.1v11.32h15.7v2.46h-18.41v-29.03Z"/>
          <path d="M434.58,46.72c.71,1.23,1.63,2.15,2.77,2.75,1.13.6,2.43.9,3.88.9.9,0,1.75-.14,2.54-.41.79-.27,1.48-.66,2.07-1.15.59-.49,1.05-1.09,1.39-1.78s.51-1.48.51-2.36c0-1.01-.21-1.84-.64-2.5s-.99-1.2-1.7-1.62c-.71-.42-1.51-.79-2.4-1.09-.89-.3-1.8-.6-2.75-.9s-1.86-.64-2.75-1.03c-.89-.38-1.69-.88-2.4-1.5-.71-.62-1.28-1.39-1.7-2.32-.42-.93-.64-2.08-.64-3.44,0-1.29.25-2.43.76-3.42.5-1,1.19-1.83,2.05-2.5.86-.67,1.85-1.17,2.97-1.52,1.12-.34,2.3-.51,3.53-.51,1.58,0,3.05.28,4.41.84,1.35.56,2.52,1.5,3.51,2.81l-2.34,1.68c-.68-.96-1.48-1.67-2.4-2.15-.92-.48-2-.72-3.26-.72-.88,0-1.71.12-2.5.35s-1.48.57-2.07,1.02c-.59.45-1.06,1.02-1.41,1.7-.36.68-.53,1.49-.53,2.42,0,1.45.37,2.56,1.11,3.34.74.78,1.66,1.39,2.77,1.85,1.11.45,2.31.85,3.61,1.19,1.3.34,2.5.8,3.61,1.37,1.11.57,2.03,1.37,2.77,2.4.74,1.02,1.11,2.44,1.11,4.24,0,1.31-.25,2.47-.74,3.49-.49,1.01-1.16,1.87-1.99,2.56-.83.7-1.8,1.22-2.89,1.58-1.09.36-2.23.53-3.4.53-1.91,0-3.68-.33-5.29-1-1.61-.67-2.99-1.8-4.14-3.38l2.58-1.72Z"/>
          <path d="M473.53,46.72c.71,1.23,1.63,2.15,2.77,2.75,1.13.6,2.43.9,3.88.9.9,0,1.75-.14,2.54-.41.79-.27,1.48-.66,2.07-1.15.59-.49,1.05-1.09,1.39-1.78s.51-1.48.51-2.36c0-1.01-.21-1.84-.64-2.5s-.99-1.2-1.7-1.62c-.71-.42-1.51-.79-2.4-1.09-.89-.3-1.8-.6-2.75-.9s-1.86-.64-2.75-1.03c-.89-.38-1.69-.88-2.4-1.5-.71-.62-1.28-1.39-1.7-2.32-.42-.93-.64-2.08-.64-3.44,0-1.29.25-2.43.76-3.42.5-1,1.19-1.83,2.05-2.5.86-.67,1.85-1.17,2.97-1.52,1.12-.34,2.3-.51,3.53-.51,1.58,0,3.05.28,4.41.84,1.35.56,2.52,1.5,3.51,2.81l-2.34,1.68c-.68-.96-1.48-1.67-2.4-2.15-.92-.48-2-.72-3.26-.72-.88,0-1.71.12-2.5.35s-1.48.57-2.07,1.02c-.59.45-1.06,1.02-1.41,1.7-.36.68-.53,1.49-.53,2.42,0,1.45.37,2.56,1.11,3.34.74.78,1.66,1.39,2.77,1.85,1.11.45,2.31.85,3.61,1.19,1.3.34,2.5.8,3.61,1.37,1.11.57,2.03,1.37,2.77,2.4.74,1.02,1.11,2.44,1.11,4.24,0,1.31-.25,2.47-.74,3.49-.49,1.01-1.16,1.87-1.99,2.56-.83.7-1.8,1.22-2.89,1.58-1.09.36-2.23.53-3.4.53-1.91,0-3.68-.33-5.29-1-1.61-.67-2.99-1.8-4.14-3.38l2.58-1.72Z"/>
        </g>
        <g>
          <path d="M259.8,75.25c-.82-1.07-1.86-1.89-3.12-2.46-1.26-.57-2.56-.86-3.9-.86-1.64,0-3.12.31-4.45.92-1.33.62-2.46,1.46-3.4,2.52-.94,1.07-1.67,2.32-2.19,3.75s-.78,2.97-.78,4.61c0,1.53.25,2.98.74,4.35.49,1.37,1.2,2.57,2.13,3.61.93,1.04,2.06,1.86,3.4,2.46,1.34.6,2.86.9,4.55.9s3.13-.34,4.39-1.02c1.26-.68,2.32-1.64,3.2-2.87l3.32,2.5c-.22.3-.6.73-1.15,1.29-.55.56-1.27,1.12-2.17,1.68-.9.56-1.99,1.05-3.26,1.48-1.27.42-2.74.64-4.41.64-2.3,0-4.37-.44-6.21-1.31-1.84-.88-3.42-2.02-4.71-3.44-1.3-1.42-2.29-3.03-2.97-4.82-.68-1.79-1.03-3.6-1.03-5.43,0-2.24.37-4.31,1.11-6.21.74-1.9,1.77-3.54,3.1-4.92,1.33-1.38,2.92-2.45,4.78-3.22,1.86-.76,3.91-1.15,6.15-1.15,1.91,0,3.79.37,5.64,1.11,1.84.74,3.36,1.87,4.53,3.4l-3.28,2.5Z"/>
          <path d="M286.29,98.75c-2.21,0-4.25-.39-6.11-1.17-1.86-.78-3.45-1.85-4.78-3.22-1.33-1.37-2.37-2.98-3.12-4.84-.75-1.86-1.13-3.87-1.13-6.03s.38-4.17,1.13-6.03c.75-1.86,1.79-3.47,3.12-4.84,1.33-1.37,2.92-2.44,4.78-3.22,1.86-.78,3.89-1.17,6.11-1.17s4.25.39,6.11,1.17c1.86.78,3.45,1.85,4.78,3.22,1.33,1.37,2.36,2.98,3.12,4.84.75,1.86,1.13,3.87,1.13,6.03s-.38,4.17-1.13,6.03c-.75,1.86-1.79,3.47-3.12,4.84-1.33,1.37-2.92,2.44-4.78,3.22-1.86.78-3.9,1.17-6.11,1.17ZM286.29,95.06c1.67,0,3.17-.31,4.51-.92,1.34-.62,2.49-1.44,3.44-2.48s1.69-2.26,2.21-3.67c.52-1.41.78-2.9.78-4.49s-.26-3.08-.78-4.49-1.26-2.63-2.21-3.67c-.96-1.04-2.1-1.87-3.44-2.48-1.34-.62-2.84-.92-4.51-.92s-3.17.31-4.51.92c-1.34.62-2.49,1.44-3.44,2.48-.96,1.04-1.69,2.26-2.21,3.67s-.78,2.9-.78,4.49.26,3.08.78,4.49c.52,1.41,1.26,2.63,2.21,3.67s2.1,1.87,3.44,2.48c1.34.62,2.84.92,4.51.92Z"/>
          <path d="M320.69,68.98h3.57l12.42,29.03h-4.59l-2.91-7.18h-13.82l-2.87,7.18h-4.59l12.79-29.03ZM327.74,87.39l-5.41-13.33h-.08l-5.49,13.33h10.99Z"/>
          <path d="M365.17,75.25c-.82-1.07-1.86-1.89-3.12-2.46-1.26-.57-2.56-.86-3.9-.86-1.64,0-3.12.31-4.45.92-1.33.62-2.46,1.46-3.4,2.52-.94,1.07-1.67,2.32-2.19,3.75s-.78,2.97-.78,4.61c0,1.53.25,2.98.74,4.35.49,1.37,1.2,2.57,2.13,3.61.93,1.04,2.06,1.86,3.4,2.46,1.34.6,2.86.9,4.55.9s3.13-.34,4.39-1.02c1.26-.68,2.32-1.64,3.2-2.87l3.32,2.5c-.22.3-.6.73-1.15,1.29-.55.56-1.27,1.12-2.17,1.68-.9.56-1.99,1.05-3.26,1.48-1.27.42-2.74.64-4.41.64-2.3,0-4.37-.44-6.21-1.31-1.84-.88-3.42-2.02-4.71-3.44-1.3-1.42-2.29-3.03-2.97-4.82-.68-1.79-1.03-3.6-1.03-5.43,0-2.24.37-4.31,1.11-6.21.74-1.9,1.77-3.54,3.1-4.92,1.33-1.38,2.92-2.45,4.78-3.22,1.86-.76,3.91-1.15,6.15-1.15,1.91,0,3.79.37,5.64,1.11,1.84.74,3.36,1.87,4.53,3.4l-3.28,2.5Z"/>
          <path d="M378.33,68.98h3.94v12.05h15.05v-12.05h3.94v29.03h-3.94v-13.29h-15.05v13.29h-3.94v-29.03Z"/>
          <path d="M413.22,68.98h3.94v29.03h-3.94v-29.03Z"/>
          <path d="M429.13,68.98h5.17l15.99,23.86h.08v-23.86h3.94v29.03h-5l-16.15-23.86h-.08v23.86h-3.94v-29.03Z"/>
          <path d="M491,81.77v14.31c-.71.44-1.52.82-2.42,1.15-.9.33-1.84.61-2.81.84-.97.23-1.96.4-2.95.51-1,.11-1.93.16-2.81.16-2.46,0-4.65-.41-6.58-1.23s-3.55-1.93-4.88-3.32c-1.33-1.39-2.34-3.01-3.03-4.86-.7-1.85-1.05-3.79-1.05-5.84,0-2.16.38-4.17,1.13-6.03.75-1.86,1.79-3.47,3.12-4.84,1.33-1.37,2.92-2.44,4.78-3.22,1.86-.78,3.89-1.17,6.11-1.17,2.68,0,4.87.33,6.56,1,1.69.67,3.12,1.59,4.26,2.77l-2.79,2.99c-1.2-1.15-2.47-1.95-3.81-2.4-1.34-.45-2.75-.68-4.22-.68-1.67,0-3.17.31-4.51.92-1.34.62-2.49,1.44-3.44,2.48-.96,1.04-1.69,2.26-2.21,3.67s-.78,2.9-.78,4.49.29,3.16.86,4.57c.57,1.41,1.37,2.63,2.38,3.67,1.01,1.04,2.2,1.85,3.57,2.44,1.37.59,2.86.88,4.47.88,1.39,0,2.71-.13,3.96-.39,1.24-.26,2.3-.64,3.18-1.13v-8.08h-6.44v-3.69h10.37Z"/>
        </g>
      </g>
      <rect x="213.28" y="0" width="4.03" height="131"/>
    </g>
  </g>
</svg>
