<?xml version="1.0" encoding="UTF-8"?>
<svg id="Layer_2" xmlns="http://www.w3.org/2000/svg" viewBox="-20 -20 531 171">
  <defs>
    <filter id="green-glow" x="-50%" y="-50%" width="200%" height="200%">
      <feGaussianBlur in="SourceAlpha" stdDeviation="6" result="blur"/>
      <feFlood flood-color="#05A660" result="color"/>
      <feComposite in="color" in2="blur" operator="in" result="shadow"/>
      <feComposite in="SourceGraphic" in2="shadow" operator="over"/>
    </filter>
  </defs>
  <style>
      .silhouette { fill: #000000; filter: url(#green-glow); }
  </style>
  <g id="Layer_1-2" data-name="Layer_1" class="silhouette">
    <g>
      <g>
        <polygon points="0 130 27.23 130 27.24 86.56 .23 59.8 0 130"/>
        <polygon points=".23 1 .23 31.94 58.21 90.12 102.1 46.51 115.23 59.61 115.23 1 109.06 1 58.94 52 57.03 51.99 6.91 1 .23 1"/>
        <polyline points="115.23 90 115.23 60.49 145.61 89.91 200.23 35.41 200.23 61.19 148.51 114 142.23 114"/>
        <polyline points="88.23 89 88.23 130 115.23 130.01 115.21 89.89 101.24 77.46"/>
      </g>
      <g>
        <g>
          <path d="M239.84,23.06h17.38v2.46h-14.68v10.33h13.65v2.46h-13.65v13.78h-2.71v-29.03Z"/>
          <path d="M278.79,23.06h2.71v29.03h-2.71v-29.03Z"/>
          <path d="M312.04,25.52h-9.92v-2.46h22.55v2.46h-9.92v26.57h-2.71v-26.57Z"/>
          <path d="M345.29,23.06h3.49l17.67,25.42h.08v-25.42h2.71v29.03h-3.49l-17.67-25.42h-.08v25.42h-2.71v-29.03Z"/>
          <path d="M393.34,23.06h17.75v2.46h-15.05v10.33h14.1v2.46h-14.1v11.32h15.7v2.46h-18.41v-29.03Z"/>
          <path d="M434.58,46.72c.71,1.23,1.63,2.15,2.77,2.75,1.13.6,2.43.9,3.88.9.9,0,1.75-.14,2.54-.41.79-.27,1.48-.66,2.07-1.15.59-.49,1.05-1.09,1.39-1.78s.51-1.48.51-2.36c0-1.01-.21-1.84-.64-2.5s-.99-1.2-1.7-1.62c-.71-.42-1.51-.79-2.4-1.09-.89-.3-1.8-.6-2.75-.9s-1.86-.64-2.75-1.03c-.89-.38-1.69-.88-2.4-1.5-.71-.62-1.28-1.39-1.7-2.32-.42-.93-.64-2.08-.64-3.44,0-1.29.25-2.43.76-3.42.5-1,1.19-1.83,2.05-2.5.86-.67,1.85-1.17,2.97-1.52,1.12-.34,2.3-.51,3.53-.51,1.58,0,3.05.28,4.41.84,1.35.56,2.52,1.5,3.51,2.81l-2.34,1.68c-.68-.96-1.48-1.67-2.4-2.15-.92-.48-2-.72-3.26-.72-.88,0-1.71.12-2.5.35s-1.48.57-2.07,1.02c-.59.45-1.06,1.02-1.41,1.7-.36.68-.53,1.49-.53,2.42,0,1.45.37,2.56,1.11,3.34.74.78,1.66,1.39,2.77,1.85,1.11.45,2.31.85,3.61,1.19,1.3.34,2.5.8,3.61,1.37,1.11.57,2.03,1.37,2.77,2.4.74,1.02,1.11,2.44,1.11,4.24,0,1.31-.25,2.47-.74,3.49-.49,1.01-1.16,1.87-1.99,2.56-.83.7-1.8,1.22-2.89,1.58-1.09.36-2.23.53-3.4.53-1.91,0-3.68-.33-5.29-1-1.61-.67-2.99-1.8-4.14-3.38l2.58-1.72Z"/>
          <path d="M473.53,46.72c.71,1.23,1.63,2.15,2.77,2.75,1.13.6,2.43.9,3.88.9.9,0,1.75-.14,2.54-.41.79-.27,1.48-.66,2.07-1.15.59-.49,1.05-1.09,1.39-1.78s.51-1.48.51-2.36c0-1.01-.21-1.84-.64-2.5s-.99-1.2-1.7-1.62c-.71-.42-1.51-.79-2.4-1.09-.89-.3-1.8-.6-2.75-.9s-1.86-.64-2.75-1.03c-.89-.38-1.69-.88-2.4-1.5-.71-.62-1.28-1.39-1.7-2.32-.42-.93-.64-2.08-.64-3.44,0-1.29.25-2.43.76-3.42.5-1,1.19-1.83,2.05-2.5.86-.67,1.85-1.17,2.97-1.52,1.12-.34,2.3-.51,3.53-.51,1.58,0,3.05.28,4.41.84,1.35.56,2.52,1.5,3.51,2.81l-2.34,1.68c-.68-.96-1.48-1.67-2.4-2.15-.92-.48-2-.72-3.26-.72-.88,0-1.71.12-2.5.35s-1.48.57-2.07,1.02c-.59.45-1.06,1.02-1.41,1.7-.36.68-.53,1.49-.53,2.42,0,1.45.37,2.56,1.11,3.34.74.78,1.66,1.39,2.77,1.85,1.11.45,2.31.85,3.61,1.19,1.3.34,2.5.8,3.61,1.37,1.11.57,2.03,1.37,2.77,2.4.74,1.02,1.11,2.44,1.11,4.24,0,1.31-.25,2.47-.74,3.49-.49,1.01-1.16,1.87-1.99,2.56-.83.7-1.8,1.22-2.89,1.58-1.09.36-2.23.53-3.4.53-1.91,0-3.68-.33-5.29-1-1.61-.67-2.99-1.8-4.14-3.38l2.58-1.72Z"/>
        </g>
      </g>
      <rect x="213.28" y="0" width="4.03" height="131"/>
    </g>
  </g>
</svg>
